<svg width="34" height="34" viewBox="0 0 34 34" fill="none" xmlns="http://www.w3.org/2000/svg">
<path opacity="0.2" d="M6.03348 23.5076C4.44938 20.8371 3.89461 17.6803 4.47335 14.6298C5.0521 11.5793 6.72454 8.84498 9.17663 6.94032C11.6287 5.03565 14.6918 4.09164 17.7906 4.28556C20.8895 4.47948 23.811 5.79798 26.0065 7.99348C28.202 10.189 29.5205 13.1105 29.7144 16.2093C29.9084 19.3082 28.9644 22.3712 27.0597 24.8233C25.1551 27.2754 22.4208 28.9479 19.3703 29.5266C16.3198 30.1054 13.1629 29.5506 10.4925 27.9666L10.4925 27.9664L6.08892 29.2246C5.90672 29.2766 5.71393 29.279 5.5305 29.2315C5.34708 29.184 5.1797 29.0883 5.04572 28.9543C4.91173 28.8203 4.81602 28.6529 4.76849 28.4695C4.72096 28.2861 4.72334 28.0933 4.7754 27.9111L6.03357 23.5075L6.03348 23.5076Z" fill="#02A689"/>
<path d="M6.03348 23.5076C4.44938 20.8371 3.89461 17.6803 4.47335 14.6298C5.0521 11.5793 6.72454 8.84498 9.17663 6.94032C11.6287 5.03565 14.6918 4.09164 17.7906 4.28556C20.8895 4.47948 23.811 5.79798 26.0065 7.99348C28.202 10.189 29.5205 13.1105 29.7144 16.2093C29.9084 19.3082 28.9644 22.3712 27.0597 24.8233C25.1551 27.2754 22.4208 28.9479 19.3703 29.5266C16.3198 30.1054 13.1629 29.5506 10.4925 27.9666L10.4925 27.9664L6.08892 29.2246C5.90672 29.2766 5.71393 29.279 5.5305 29.2315C5.34708 29.184 5.1797 29.0883 5.04572 28.9543C4.91173 28.8203 4.81602 28.6529 4.76849 28.4695C4.72096 28.2861 4.72334 28.0933 4.7754 27.9111L6.03357 23.5075L6.03348 23.5076Z" stroke="white" stroke-width="2" stroke-linecap="round" stroke-linejoin="round"/>
<path d="M12.75 14.875H21.25" stroke="white" stroke-width="2" stroke-linecap="round" stroke-linejoin="round"/>
<path d="M12.75 19.125H21.25" stroke="white" stroke-width="2" stroke-linecap="round" stroke-linejoin="round"/>
</svg>
