<svg width="34" height="34" viewBox="0 0 34 34" fill="none" xmlns="http://www.w3.org/2000/svg">
<path opacity="0.2" d="M12.282 16.577C13.3841 18.8302 15.2106 20.6484 17.4688 21.7402C17.634 21.8185 17.8168 21.8525 17.9991 21.8387C18.1814 21.8249 18.357 21.7638 18.5085 21.6616L21.8336 19.4444C21.9806 19.3463 22.1498 19.2865 22.3258 19.2703C22.5019 19.2541 22.6791 19.2821 22.8416 19.3518L29.0621 22.0177C29.2734 22.1075 29.4499 22.2635 29.5648 22.4622C29.6797 22.661 29.727 22.8917 29.6994 23.1196C29.5028 24.6581 28.7521 26.0722 27.588 27.0971C26.4238 28.122 24.926 28.6874 23.375 28.6875C18.5845 28.6875 13.9903 26.7845 10.6029 23.3971C7.21551 20.0097 5.3125 15.4155 5.3125 10.625C5.31258 9.07399 5.87801 7.57618 6.9029 6.41203C7.9278 5.24788 9.34189 4.49722 10.8804 4.30061C11.1083 4.27303 11.339 4.32026 11.5378 4.4352C11.7365 4.55014 11.8925 4.72656 11.9823 4.93787L14.6506 11.1638C14.7196 11.3249 14.7477 11.5005 14.7324 11.675C14.7172 11.8496 14.659 12.0176 14.563 12.1642L12.3535 15.5403C12.2529 15.6921 12.1935 15.8675 12.1809 16.0492C12.1684 16.2309 12.2032 16.4128 12.282 16.577V16.577Z" fill="#02A689"/>
<path d="M12.282 16.577C13.3841 18.8302 15.2106 20.6484 17.4688 21.7402C17.634 21.8185 17.8168 21.8525 17.9991 21.8387C18.1814 21.8249 18.357 21.7638 18.5085 21.6616L21.8336 19.4444C21.9806 19.3463 22.1498 19.2865 22.3258 19.2703C22.5019 19.2541 22.6791 19.2821 22.8416 19.3518L29.0621 22.0177C29.2734 22.1075 29.4499 22.2635 29.5648 22.4622C29.6797 22.661 29.727 22.8917 29.6994 23.1196C29.5028 24.6581 28.7521 26.0722 27.588 27.0971C26.4238 28.122 24.926 28.6874 23.375 28.6875C18.5845 28.6875 13.9903 26.7845 10.6029 23.3971C7.21551 20.0097 5.3125 15.4155 5.3125 10.625C5.31258 9.07399 5.87801 7.57618 6.9029 6.41203C7.9278 5.24788 9.34189 4.49722 10.8804 4.30061C11.1083 4.27303 11.339 4.32026 11.5378 4.4352C11.7365 4.55014 11.8925 4.72656 11.9823 4.93787L14.6506 11.1638C14.7196 11.3249 14.7477 11.5005 14.7324 11.675C14.7172 11.8496 14.659 12.0176 14.563 12.1642L12.3535 15.5403C12.2529 15.6921 12.1935 15.8675 12.1809 16.0492C12.1684 16.2309 12.2032 16.4128 12.282 16.577V16.577Z" stroke="white" stroke-width="2" stroke-linecap="round" stroke-linejoin="round"/>
<path d="M21.1727 5.3125C22.9739 5.79692 24.6162 6.74611 25.9351 8.065C27.254 9.38389 28.2032 11.0262 28.6876 12.8274" stroke="white" stroke-width="2" stroke-linecap="round" stroke-linejoin="round"/>
<path d="M20.0724 9.4187C21.1531 9.70935 22.1385 10.2789 22.9298 11.0702C23.7212 11.8615 24.2907 12.8469 24.5813 13.9276" stroke="white" stroke-width="2" stroke-linecap="round" stroke-linejoin="round"/>
</svg>
